<svg id="Layer_1" data-name="Layer 1" xmlns="http://www.w3.org/2000/svg" viewBox="0 0 150 42.98"><title>LogoCOlorArtboard 2</title><path d="M52,9h0a3.08,3.08,0,0,0,3-3.06,3,3,0,0,0-5.13-2.09A3,3,0,0,0,49,6a3,3,0,0,0,.9,2.17A2.93,2.93,0,0,0,52,9" style="fill:#ff5d60;fill-rule:evenodd"/><path d="M74,9h0a3.07,3.07,0,0,0,3-3,3,3,0,0,0-2.95-3,3.11,3.11,0,0,0-2.17.84A3,3,0,0,0,71,5.94a3,3,0,0,0,.87,2.17A3,3,0,0,0,74,9" style="fill:#ff5d60;fill-rule:evenodd"/><path d="M65,3.71a2.16,2.16,0,0,0-1.68-.61c-1.38,0-2.13,1-2.13,2.63,0,5.54,0,23.57,0,25.84a3.55,3.55,0,0,1-3.3,3.65,3.49,3.49,0,0,1-2.52-.93,3,3,0,0,1-.85-2.21c0-2.43,0-15.24,0-17.2a2.56,2.56,0,0,0-.62-1.81,2.3,2.3,0,0,0-.54-.4l-.3-.13-.21-.07a2.3,2.3,0,0,0-1.09,0l-.2.05a2.43,2.43,0,0,0-1.52,2.4c0,2.43,0,16.93,0,17.85,0,1.19.49,7.11,7.72,7.11,3.51,0,5.89-1.46,7.08-4.34a11.65,11.65,0,0,0,.8-4.24c0-1.12,0-23.11,0-25.72A2.55,2.55,0,0,0,65,3.71" style="fill:#ff5d60;fill-rule:evenodd"/><path d="M39.9,23.63c-.89-.33-1.78-.59-2.68-.84a18.44,18.44,0,0,1-3.65-1.31A2.3,2.3,0,0,1,32.38,20a2.18,2.18,0,0,1,.43-1.79,3.15,3.15,0,0,1,2.65-.92,4.08,4.08,0,0,1,3.18,1.43A2.31,2.31,0,0,0,42.84,18a2.36,2.36,0,0,0-.31-1.85,8.59,8.59,0,0,0-6.89-3.54,7.61,7.61,0,0,0-6.5,2.75,6.86,6.86,0,0,0,2.26,10.28A22.3,22.3,0,0,0,36,27.29c.82.23,1.6.46,2.33.73a4.86,4.86,0,0,1,2.8,2.11,2.73,2.73,0,0,1,0,2.11,4.17,4.17,0,0,1-2.51,2.35,15.35,15.35,0,0,1-7.61.46l-.72-.16h0l-.33-.09-.12,0h0a13.11,13.11,0,0,1-2.13-.84A12.74,12.74,0,0,1,24,31.28a3.81,3.81,0,0,1-1-2.63V18A4.72,4.72,0,0,0,18.87,13l-.09,0c-4.18-.9-7.49-.42-10.42,1.51C2.77,18.14.36,27.13,3.19,33.7a10.36,10.36,0,0,0,8.35,6.14c3.72.38,7.17-1.45,9.53-5a17.49,17.49,0,0,0,8.81,4.74.27.27,0,0,0,.13,0,20.65,20.65,0,0,0,4.13.41,18.14,18.14,0,0,0,6.35-1.07,8.79,8.79,0,0,0,4.91-4.77,7.46,7.46,0,0,0-.06-5.92,9.09,9.09,0,0,0-5.43-4.58M18.53,28.4c-.18,2.22-1.36,5-3.59,6.3a4.88,4.88,0,0,1-2.67.64C8.4,35.18,6.7,31.26,6.43,28c-.32-3.8,1.24-8.39,5.43-10.1a8.47,8.47,0,0,1,3.24-.62,12.42,12.42,0,0,1,2.65.31,1.06,1.06,0,0,1,.84,1c0,.75,0,1.5,0,2.23V21a71.65,71.65,0,0,1-.1,7.37" style="fill:#ff5d60;fill-rule:evenodd"/><path d="M147.38,27.35A9.06,9.06,0,0,0,142,22.82c-.9-.33-1.79-.58-2.68-.83a18.71,18.71,0,0,1-3.65-1.3,2.28,2.28,0,0,1-1.19-1.5,2.13,2.13,0,0,1,.43-1.77,3.19,3.19,0,0,1,2.65-.91,4.08,4.08,0,0,1,3.18,1.42,2.32,2.32,0,0,0,3.87-2.54,8.61,8.61,0,0,0-6.89-3.5,7.64,7.64,0,0,0-6.49,2.72,6.75,6.75,0,0,0-1.28,5.56,6.88,6.88,0,0,0,3.54,4.6A22.57,22.57,0,0,0,138,26.44c.82.23,1.6.45,2.33.72a4.84,4.84,0,0,1,2.8,2.09,2.67,2.67,0,0,1,0,2.09c-1.61,3.83-7.05,3.46-11.34,2.48a15.47,15.47,0,0,1-6.73-3.38,17.19,17.19,0,0,1-4-5.36c4.14-2.47,4.86-7.58,5.38-11.35a1.44,1.44,0,0,0-.51-1.36,2.26,2.26,0,0,0-2.68,0,2,2,0,0,0-.88,1.31,44.39,44.39,0,0,1-1.27,4.93,6.27,6.27,0,0,1-4.92,4.13,17.18,17.18,0,0,1-3.44.25c0-1.06-.06-2,0-3V5.26a2.27,2.27,0,0,0-4.54,0V29.33a6.65,6.65,0,0,1-.83,3.93h0a3,3,0,0,1-2.57,1.07c-1.66,0-3.44-1.92-3.44-5,0-2.32,0-8.53,0-8.56,0-4.26-3-8.85-9.43-8.85a10,10,0,0,0-6.45,2.2,8.35,8.35,0,0,0-3,6.65v9.31c0,2.66-1.28,4.25-3.42,4.27a3.19,3.19,0,0,1-2.29-.91,4.6,4.6,0,0,1-1.16-3.36c0-2.15,0-9.53,0-9.56q0-3,0-6a2.17,2.17,0,0,0-1.69-2.35,2.23,2.23,0,0,0-2,.35,2.43,2.43,0,0,0-.89,2c0,2.39,0,8.21.06,12.46,0,2.32,0,4.16,0,4.71,0,3.88,4.34,7.21,7.9,7.21,4.55,0,8-3.6,8-8.37V20.71c0-3.71,3.35-4.22,4.79-4.27a5.18,5.18,0,0,1,3.78,1.29,4,4,0,0,1,1.18,3c0,2.81,0,5.24,0,6.85,0,.82,0,1.43,0,1.77,0,4.6,3.19,9.53,7.95,9.53a10,10,0,0,0,3-.41h0a6.49,6.49,0,0,0,4.2-3.82c.66-1.56.79-5,.81-6v-1.4a16.84,16.84,0,0,0,2.4-.13h.07c.47-.06.85-.13,1.4-.25l.22.36.05.09.91,1.38a23.54,23.54,0,0,0,2.76,3.66A20.67,20.67,0,0,0,123.78,35a22.72,22.72,0,0,0,6.85,3.08A25.2,25.2,0,0,0,137,39a12.46,12.46,0,0,0,8-2.49,7.88,7.88,0,0,0,2.36-9.15" style="fill:#ff5d60;fill-rule:evenodd"/></svg>